
<svg xmlns="http://www.w3.org/2000/svg" data-name="Layer 1" viewBox="0 0 92.53 122.88">
  <title>ev-point-station</title>
  <path d="M46.27 18.2a28.61 28.61 0 1 1-5.07.45L34 31.08a1 1 0 0 0-.13.48.93.93 0 0 0 .94.91L39 32.4l-.61 4.6H27.48v21h15v-5.34H34.2v-2.55h6.72v-4.87H34.2v-2.82h7.22l.81-5.17 5.71-9.74a.94.94 0 0 0 .16-.51.93.93 0 0 0-.93-.93h-3.55l.38-7.78c.75-.05 1.5-.09 2.27-.09M58 37h7.09l-5.25 21H50l-5.2-21h7.09l2.85 13.34h.3zm-10.37 78.69A82.5 82.5 0 0 0 64 101.81a85.53 85.53 0 0 0 20.56-39.58c2.81-13.67 1.5-27-4.76-37.34a36.4 36.4 0 0 0-6.62-8.06C65.61 9.93 57 6.63 48.23 6.56 39.07 6.48 29.77 10 21.55 16.5a38.5 38.5 0 0 0-8.63 9.56c-5.77 9.09-7.51 20.37-5.61 32.18 1.94 12 7.67 24.61 16.77 36a102.2 102.2 0 0 0 23.55 21.41Zm21.23-9.46a88.8 88.8 0 0 1-19.32 16 3.3 3.3 0 0 1-3.72.13 109.2 109.2 0 0 1-26.89-24c-9.8-12.31-16-26-18.1-39.1C-1.33 45.89.7 33 7.36 22.53a45.3 45.3 0 0 1 10.1-11.18C26.85 3.87 37.6-.09 48.29 0 58.6.09 68.79 3.93 77.6 12a43 43 0 0 1 7.81 9.53c7.16 11.8 8.72 26.83 5.58 42.05a92.05 92.05 0 0 1-22.13 42.69Z" style="fill-rule:evenodd"/>
</svg>