<svg xmlns="http://www.w3.org/2000/svg" xml:space="preserve" viewBox="0 0 576.58 576.58">
  <path d="M57.814 461.416H24.345c-6.588 0-11.953 5.364-11.953 11.953v23.906c0 6.589 5.365 11.953 11.953 11.953h33.469c6.588 0 11.953-5.364 11.953-11.953v-23.906c.001-6.589-5.364-11.953-11.953-11.953"/>
  <path d="m509.346 509.229.297-31.078v-4.781c0-11.857 9.658-21.516 21.516-21.516h26.297V432.26l-.153-1.176c-.21-.852-14.793-68.879-102.223-76.434l-92.633-107.3S153.65 226.733 79.722 311.907c-14.927 17.193-25.389 33.956-32.876 50.231-5.527-3.776-11.36-10.385-16.142-16.466-10.758-21.593-14.047-42.648-9.734-62.816 9.734-45.546 55.128-72.656 55.577-72.924l-9.639-16.524c-2.161 1.262-53.005 31.441-64.604 85.288-6.684 31.031 1.214 63.131 23.17 95.491l10.146 19.221c-6.56 22.52-7.315 41.674-7.191 58.446h29.386c11.857 0 21.516 9.658 21.516 21.516v23.906c0 4.418-1.348 8.529-3.644 11.953h33.211c4.819 30.466 31.126 53.789 62.95 53.789s58.13-23.323 62.95-53.789h108.419c4.819 30.466 31.126 53.789 62.95 53.789s58.13-23.323 62.95-53.789zM88.893 341.397s38.25-48.1 143.438-61.43v85.823H88.893zm82.954 195.467c-17.308 0-31.729-11.733-36.137-27.636-.889-3.213-1.521-6.531-1.521-10.021 0-20.799 16.859-37.657 37.657-37.657s37.657 16.858 37.657 37.657c0 3.49-.631 6.809-1.521 10.021-4.406 15.903-18.836 27.636-36.135 27.636M526.08 397.739c.02.02.029.028.039.048 15.28 16.295 20.636 31.499 21.716 34.941h-47.363c.65-18.79 6.847-27.1 25.608-34.989M261.018 277.874c76.5-6.79 84.867-3.863 84.867-3.863l49.008 56.428-11.656 35.353H261.018zm145.149 258.99c-17.309 0-31.729-11.733-36.137-27.636-.89-3.213-1.521-6.531-1.521-10.021 0-20.799 16.858-37.657 37.657-37.657s37.657 16.858 37.657 37.657c0 3.49-.632 6.809-1.521 10.021-4.406 15.903-18.837 27.636-36.135 27.636"/>
  <path d="M559.846 461.416h-28.688c-6.589 0-11.953 5.364-11.953 11.953v23.906c0 6.589 5.364 11.953 11.953 11.953h33.469c6.589 0 11.953-5.364 11.953-11.953V478.15c0-9.237-7.497-16.734-16.734-16.734M109.242 232.413c5.049 8.014 17.614 9.18 25.627 4.131l116.567-53.703 2.305 3.663c3.107 4.934 9.629 6.416 14.573 3.309l1.224-.775c4.935-3.108 6.417-9.629 3.309-14.573L261.63 156.67l-34.3-54.439-45.518-72.235c-3.108-4.934-9.629-6.417-14.573-3.309l-1.214.784c-4.935 3.108-6.417 9.629-3.309 14.573l2.305 3.663-98.752 81.97c-8.013 5.049-12.383 16.887-7.334 24.901zm88.405-92.88c-7.344 4.628-17.06 2.429-21.688-4.925-4.628-7.344-2.429-17.06 4.925-21.688s17.06-2.429 21.688 4.924c4.628 7.345 2.419 17.06-4.925 21.689m-71.881-19.986 8.214-5.173a6.43 6.43 0 0 1 8.874 2.018l35.257 55.959a6.43 6.43 0 0 1-2.018 8.874l-8.214 5.173a6.43 6.43 0 0 1-8.874-2.018l-35.257-55.96c-1.884-3.011-.985-6.98 2.018-8.873m-28.65 18.044 8.214-5.173a6.433 6.433 0 0 1 8.874 2.018l35.257 55.959a6.43 6.43 0 0 1-2.018 8.874l-8.214 5.173a6.43 6.43 0 0 1-8.874-2.018l-35.257-55.96c-1.883-3.001-.984-6.979 2.018-8.873M221.84 72.347l61.621-38.833c4.006-2.524 3.768-10.117 1.243-14.124s-9.266-7.497-13.273-4.973l-61.62 38.833zM325.584 100.365c4.006-2.524 3.768-10.117 1.243-14.124s-9.267-7.497-13.273-4.972l-61.621 38.833 12.039 19.097z"/>
</svg>