
<svg xmlns="http://www.w3.org/2000/svg" xml:space="preserve" viewBox="0 0 123.38 114.96">
  <path d="M41.49 50.31h7.25V35.72c0-2.07 1.69-3.76 3.76-3.76s3.76 1.69 3.76 3.76v14.59h11.05V35.72c0-2.07 1.69-3.76 3.76-3.76s3.76 1.69 3.76 3.76v14.59h7.06c1.31 0 2.38 1.07 2.38 2.38v2.76c0 1.31-1.07 2.38-2.38 2.38h-40.4c-1.31 0-2.38-1.07-2.38-2.38v-2.76c0-1.31 1.07-2.38 2.38-2.38zm10.37 9.65H71.9v2.98H51.86v-2.98zm-17.74 46.67a4.365 4.365 0 0 1 1.43 6 4.365 4.365 0 0 1-6 1.43A61.8 61.8 0 0 1 8.04 91.63 61.2 61.2 0 0 1 .25 61.69c0-16.97 6.88-32.33 18-43.44C29.37 7.13 44.73.25 61.69.25c16.97 0 32.35 6.81 43.48 17.86 11.1 11.03 17.96 26.28 17.96 43.21 0 21.97-12.27 37.39-26.04 44.32-5.09 2.57-10.43 3.98-15.48 4.17-5.28.19-10.28-.97-14.42-3.58-7.25-4.57-11.72-13.27-10.35-26.52-9.37-1.49-13.48-6.43-13.48-16.09v-5.76h37.06v5.19c0 9.78-4.59 15.77-14.77 16.75h-.05c-1.21 9.93 1.55 16.12 6.22 19.06 2.62 1.65 5.91 2.38 9.47 2.25 3.8-.14 7.89-1.24 11.87-3.24 11.23-5.65 21.23-18.34 21.23-36.55 0-14.53-5.87-27.6-15.37-37.04-9.53-9.47-22.73-15.3-37.33-15.3-14.56 0-27.73 5.9-37.27 15.44S8.98 47.13 8.98 61.69c0 9.35 2.42 18.12 6.67 25.71a52.96 52.96 0 0 0 18.47 19.23z" style="fill-rule:evenodd;clip-rule:evenodd;stroke:#000;stroke-width:.5;stroke-miterlimit:2.6131"/>
</svg>