<svg xmlns="http://www.w3.org/2000/svg" viewBox="0 0 1024 1024">
  <path d="M253 511.5c0 127.9.3 232.5.6 232.5.6 0 9.5-6 78.2-52.7l40.2-27.4V458.5l14 14 14 14v-6.8c0-9.4 1.6-14.9 5.7-19.7 5.4-6.3 9.7-8 19.8-8h8.5v-27c0-31.3.7-34.5 8.5-42.4 5.4-5.3 11.5-7.6 20.3-7.6 3.5 0 6.2-.4 6-.9-.1-.5-7.5-8.7-16.3-18.3s-28.1-30.8-43-47.1l-27-29.7H253zM597.7 327 554 375h6.8c8.9 0 15.1 2.2 20.3 7.2 8 7.8 8.4 9.5 8.7 41.5l.3 28.3h8.3c17.3 0 25.5 8.7 25.6 27.5l.1 7 13.9-14.4 14-14.4V745h119V279H641.3z"/>
  <path d="M455.4 392.9c-1.7 1.1-3.6 3.4-4.3 5.2-.7 2.1-1.1 13.4-1.1 33V461h23.1l-.3-32.1-.3-32.1-3.3-2.9c-3.9-3.5-9.1-3.9-13.8-1M554.4 394.4l-3.4 3.4V461h21.8l.6-13.3c.3-7.2.5-21.3.3-31.2-.2-19.6-.8-21.9-6.3-24.3-4.8-2.3-9.3-1.5-13 2.2M418 470c-1.8 1.8-2 3.3-2 13.7 0 6.5.4 12.3.8 12.9 1.5 2.3 5.3 3.4 11.6 3.4h6.6v41.7c0 47.2.3 49.2 7.1 62.4 7.2 13.8 20.2 25.6 34.6 31.4l5.8 2.4.3 8.8c.3 10.8 1.5 12.3 9.8 12.3h5.4v86h28v-86h5.8c8.7 0 9.6-1 10.2-12l.5-9.2 5-2.1c17.9-7.7 31.9-22.2 38.3-39.9l2.7-7.3.5-44.4.5-44.5 5.5.3c5.7.2 10.9-1.1 12.2-3.2.4-.7.8-6.5.8-13 0-10.4-.2-11.9-2-13.7-2-2-3.3-2-94-2s-92 0-94 2m106.7 34.2c-.2 1.3-2.3 10.3-4.6 20.1-2.2 9.9-4.1 18.5-4.1 19.3 0 1.1 2.4 1.4 12.1 1.4s12 .3 11.7 1.4c-.3 1.3-41.1 60.7-41.4 60.3-.1-.1 2.1-9.5 4.8-21 2.8-11.4 4.9-20.9 4.6-21.2-.2-.3-5.9-.8-12.6-1.2-6.7-.3-12.2-.9-12.2-1.2s6.8-10.3 15.1-22.1 17.6-25.2 20.7-29.8c3-4.5 5.7-8.2 6-8.2.2 0 .2 1-.1 2.2"/>
</svg>